<svg width="259" height="259" version="1.1" xmlns="http://www.w3.org/2000/svg" xmlns:xlink="http://www.w3.org/1999/xlink"><path d="M226.63 201.04L228.44 203.63L226.88 204.93Q199.17 207.52 184.67 206.48L184.67 206.48Q171.72 196.90 141.16 155.46L141.16 155.46Q138.05 151.05 136.23 148.98L136.23 148.98L136.23 220.21Q136.23 236.01 131.83 241.19L131.83 241.19L128.72 244.03Q122.77 243.78 119.40 224.87L119.40 224.87Q118.62 220.47 118.62 218.13L118.62 218.13Q118.62 215.54 120.44 208.55L120.44 208.55Q125.36 191.98 125.10 157.01L125.10 157.01Q125.10 151.57 125.10 148.98L125.10 148.98Q101.27 186.02 69.41 203.11L69.41 203.11Q64.75 205.70 59.83 207.77L59.83 207.77Q49.73 211.66 47.66 211.66L47.66 211.66Q45.33 211.66 42.73 211.14L42.73 211.14L42.73 210.36L76.41 187.57Q106.97 165.04 116.03 141.47L116.03 141.47L99.97 143.54Q99.72 143.80 98.42 146.91L98.42 146.91Q98.16 147.43 97.64 147.69L97.64 147.69L96.09 147.17Q90.39 143.54 87.54 128.00L87.54 128.00Q86.25 121.79 85.47 119.46L85.47 119.46Q81.33 105.47 75.37 94.33L75.37 94.33Q75.37 92.26 76.66 91.22L76.66 91.22Q88.06 94.33 107.74 89.41L107.74 89.41Q119.40 86.56 124.58 85.79L124.58 85.79L125.36 85.01L125.10 67.40L105.41 68.95Q101.01 68.69 97.64 67.40L97.64 67.40Q95.57 66.62 93.76 65.07L93.76 65.07Q94.53 62.73 97.38 61.96L97.38 61.96Q101.79 61.70 121.99 57.30L121.99 57.30L124.58 56.78Q124.58 42.27 114.74 29.06L114.74 29.06L114.74 25.70Q118.62 20.78 132.61 28.81L132.61 28.81Q139.34 32.69 141.16 35.54L141.16 35.54Q142.19 37.35 138.31 51.08L138.31 51.08Q138.05 51.86 137.79 52.37L137.79 52.37L158.77 46.42Q168.35 44.86 174.31 50.82L174.31 50.82Q174.31 53.41 170.94 54.45L170.94 54.45L137.53 64.03L136.23 65.07L135.72 82.94Q140.90 83.20 157.21 79.83L157.21 79.83Q168.09 77.50 176.12 78.27L176.12 78.27L189.07 86.82Q191.92 89.15 193.73 91.48L193.73 91.48Q193.73 95.37 188.29 100.03L188.29 100.03Q185.96 101.84 184.93 103.14L184.93 103.14Q183.11 105.73 174.31 125.93L174.31 125.93L168.87 136.55Q167.57 138.62 166.54 139.40L166.54 139.40Q164.21 141.21 159.80 141.21L159.80 141.21Q157.21 138.88 157.21 136.29L157.21 136.29Q142.71 136.81 136.23 138.88L136.23 138.88Q164.98 166.33 169.39 169.96L169.39 169.96Q189.33 187.05 219.11 198.19L219.11 198.19Q222.74 199.49 226.63 201.04L226.63 201.04ZM168.87 89.67L168.87 89.67L167.31 87.34Q152.81 87.34 136.23 90.71L136.23 90.71L136.23 105.99Q147.11 105.99 149.96 107.28L149.96 107.28Q152.29 108.32 153.33 110.13L153.33 110.13L153.85 112.98Q151.26 114.53 141.67 115.57L141.67 115.57L136.23 116.87L136.75 129.82Q146.59 126.71 155.92 127.48L155.92 127.48Q157.21 127.48 158.25 127.74L158.25 127.74Q166.28 103.14 168.87 89.67ZM125.10 132.15L125.36 118.94L109.56 120.49Q106.19 118.42 105.67 116.61L105.67 116.61L125.36 109.35L125.36 93.04L101.01 98.48Q96.35 100.03 92.72 101.58L92.72 101.58L99.72 137.07L125.10 132.15ZM79.00 62.73L79.00 62.73Q79.00 66.10 72.78 71.02L72.78 71.02L69.67 73.87Q59.31 85.27 57.24 88.12L57.24 88.12Q55.69 90.45 54.91 92.78L54.91 92.78Q54.91 96.40 62.68 107.02L62.68 107.02Q73.04 121.53 73.04 132.15L73.04 132.15Q73.04 139.40 68.64 144.06L68.64 144.06Q65.79 146.91 62.16 145.61L62.16 145.61Q55.43 138.62 37.30 124.64L37.30 124.64L37.04 123.34L52.06 127.48Q57.50 128.26 58.79 125.67L58.79 125.67Q58.79 118.42 51.28 104.95L51.28 104.95Q48.43 99.51 47.40 96.40L47.40 96.40L47.66 91.48L59.31 68.95Q59.31 66.88 56.72 65.07L56.72 65.07Q54.13 65.32 43.25 68.95L43.25 68.95Q42.73 69.21 41.96 69.47L41.96 69.47Q41.44 69.73 34.45 70.76L34.45 70.76Q30.04 71.54 30.04 74.13L30.04 74.13Q30.04 75.17 30.82 76.72L30.82 76.72L29.27 178.25L29.53 203.63Q28.49 222.28 23.05 224.87L23.05 224.87Q20.46 224.61 17.09 218.91L17.09 218.91Q10.88 209.59 14.76 193.01L14.76 193.01Q17.35 180.84 17.61 178.25L17.61 178.25Q23.05 140.18 20.72 101.84L20.72 101.84Q20.20 91.74 18.91 84.23L18.91 84.23Q18.65 81.38 13.73 65.32L13.73 65.32Q12.43 61.70 11.91 58.85L11.91 58.85Q17.61 55.48 26.94 62.73L26.94 62.73Q27.97 63.51 29.01 64.55L29.01 64.55Q47.14 62.48 61.90 52.12L61.90 52.12Q69.93 52.12 79.00 62.73Z" stroke="#000" fill="black" /></svg>