<svg width="259" height="259" version="1.1" xmlns="http://www.w3.org/2000/svg" xmlns:xlink="http://www.w3.org/1999/xlink"><path d="M198.91 25.51L198.91 25.51Q198.91 28.10 194.51 34.06L194.51 34.06Q193.47 35.35 192.96 36.39L192.96 36.39Q191.14 40.27 185.44 63.84L185.44 63.84Q180.26 86.38 174.31 89.23L174.31 89.23Q170.16 88.45 163.95 80.94L163.95 80.94Q163.43 80.42 163.17 79.90L163.17 79.90L124.58 84.56L121.99 90.00L121.47 90.26L119.92 89.48L119.66 89.48Q114.22 86.12 111.11 67.47L111.11 67.47Q110.59 62.55 110.08 60.99L110.08 60.99Q104.38 37.68 101.01 30.95L101.01 30.95Q100.23 29.14 99.46 27.58L99.46 27.58L99.72 24.73L114.48 26.55L115.51 26.55Q117.07 26.29 133.90 22.14L133.90 22.14L135.97 21.63Q142.45 20.07 179.23 13.08L179.23 13.08Q189.07 14.63 198.91 25.51ZM177.16 30.17L177.16 30.17Q176.38 28.10 176.12 27.58L176.12 27.58Q171.46 18.26 116.55 34.84L116.55 34.84L119.66 53.74Q143.75 43.64 153.85 44.94L153.85 44.94Q159.54 45.45 162.65 48.82L162.65 48.82L163.43 51.15L162.65 52.19Q155.14 54.26 127.17 58.66L127.17 58.66L120.95 59.70L124.32 78.35Q155.14 70.84 161.10 71.87L161.10 71.87L165.50 73.17Q166.54 73.17 167.83 72.39L167.83 72.39Q170.68 69.80 177.16 30.17ZM149.96 104.51L149.96 104.51Q147.11 106.32 141.67 102.69L141.67 102.69Q140.64 101.92 139.86 101.66L139.86 101.66L132.61 94.15Q130.54 91.30 131.57 88.45L131.57 88.45Q147.37 90.00 151.00 96.74L151.00 96.74Q152.81 100.10 149.96 104.51ZM189.59 109.69L189.59 109.69Q189.07 112.54 186.48 113.31L186.48 113.31Q172.75 119.01 120.44 126.52L120.44 126.52Q115.26 127.30 109.30 124.45L109.30 124.45Q106.19 123.15 104.38 121.34L104.38 121.34Q103.86 120.82 103.60 120.31L103.60 120.31Q107.74 118.23 121.21 116.94L121.21 116.94Q125.10 116.68 127.69 116.16L127.69 116.16Q130.02 115.64 154.88 108.65L154.88 108.65Q167.57 105.02 175.08 104.77L175.08 104.77Q180.26 104.51 184.41 106.06L184.41 106.06Q187.52 107.36 189.59 109.69ZM226.11 179.10L226.11 179.10Q226.63 181.17 225.59 182.47L225.59 182.47Q225.07 182.98 224.03 183.50L224.03 183.50L191.14 183.24Q128.21 183.24 88.58 192.83L88.58 192.83Q78.48 191.01 74.59 184.80L74.59 184.80L74.59 182.72L147.89 174.95Q160.84 141.54 159.54 133.51L159.54 133.51L158.51 128.08Q158.51 127.30 158.77 126.52L158.77 126.52Q166.54 123.41 177.16 135.85L177.16 135.85Q177.41 136.10 178.19 136.88L178.19 136.88Q177.67 137.66 173.27 143.87L173.27 143.87L172.24 145.43L156.69 173.40Q161.62 173.40 183.89 169.77L183.89 169.77Q208.24 165.89 219.63 173.40L219.63 173.40Q223.26 175.73 226.11 179.10ZM126.91 164.59L126.91 164.59Q121.21 164.34 116.03 153.72L116.03 153.72Q110.59 142.58 114.22 137.92L114.22 137.92L116.03 138.44L126.91 148.54Q135.46 158.64 126.91 164.59ZM96.61 52.97L96.61 52.97Q87.54 57.63 69.15 72.65L69.15 72.65Q66.30 75.24 63.97 76.79L63.97 76.79L62.16 123.93L78.22 132.22Q84.95 136.62 87.80 142.06L87.80 142.06Q87.80 151.39 84.95 153.20L84.95 153.20L83.14 152.68L61.64 132.22Q52.84 176.25 28.23 190.24L28.23 190.24Q20.20 194.64 14.50 194.64L14.50 194.64Q13.47 194.90 11.91 194.64L11.91 194.64L11.91 193.08Q43.25 170.03 50.25 123.41L50.25 123.41Q52.58 107.10 53.09 72.39L53.09 72.39Q53.35 56.33 52.58 45.71L52.58 45.71Q51.28 30.69 47.40 20.33L47.40 20.33L43.25 12.30Q42.22 8.94 44.81 7.38L44.81 7.38Q61.38 7.38 70.19 17.48L70.19 17.48Q64.23 35.09 64.23 69.54L64.23 69.54L75.89 53.48Q76.66 52.19 77.18 51.15L77.18 51.15L79.00 42.09Q80.03 39.50 85.73 41.05L85.73 41.05Q96.09 46.75 96.61 52.97ZM24.35 67.47L24.35 67.47Q31.34 67.99 33.15 85.34L33.15 85.34Q35.22 102.95 30.56 110.72L30.56 110.72Q27.97 114.61 24.35 112.54L24.35 112.54Q17.09 108.13 20.20 90.00L20.20 90.00Q22.02 79.12 22.02 77.05L22.02 77.05Q22.02 69.28 24.35 67.47Z" stroke="#000" fill="black" /></svg>