<svg width="259" height="259" version="1.1" xmlns="http://www.w3.org/2000/svg" xmlns:xlink="http://www.w3.org/1999/xlink"><path d="M192.44 102.56L192.44 102.56Q191.66 103.34 187.00 103.34L187.00 103.34L169.39 90.91Q167.83 89.61 168.09 87.80L168.09 87.80Q168.35 86.77 169.13 85.99L169.13 85.99Q183.11 88.06 185.19 89.10L185.19 89.10Q195.03 92.46 192.44 102.56ZM123.54 21.50L125.10 24.35L116.29 30.30L82.62 56.98L79.77 57.50L79.77 54.13Q96.35 33.15 98.42 30.04L98.42 30.04Q102.31 24.35 104.90 19.17L104.90 19.17Q104.90 11.91 106.45 11.14L106.45 11.14Q117.59 11.14 123.54 21.50L123.54 21.50ZM223.26 57.50L223.26 57.50L218.60 71.22Q218.08 73.30 218.08 75.11L218.08 75.11L218.08 144.78L218.86 184.15L218.86 184.41Q218.86 193.47 206.42 206.68L206.42 206.68Q200.72 206.68 194.51 198.13L194.51 198.13Q189.33 190.88 176.64 177.93L176.64 177.93L176.64 176.64Q178.97 176.64 190.88 180.26L190.88 180.26Q195.80 181.56 199.69 181.56L199.69 181.56L200.98 178.97Q205.65 135.97 204.09 114.22L204.09 114.22L187.00 134.16Q186.48 134.68 185.96 135.46L185.96 135.46L179.75 145.30L179.23 145.82Q176.38 148.93 166.80 142.45L166.80 142.45L162.91 139.08Q162.65 138.56 162.65 138.31L162.65 138.31Q162.65 134.68 169.13 132.35L169.13 132.35Q171.72 131.57 172.49 131.05L172.49 131.05L204.35 110.59L204.61 110.59L204.61 63.71Q204.61 60.35 200.21 57.50L200.21 57.50L173.27 61.38L170.68 61.38Q165.50 58.02 164.98 55.94L164.98 55.94Q188.81 52.32 199.69 45.84L199.69 45.84Q212.90 45.84 223.26 57.50ZM133.13 105.93L133.13 105.93Q132.35 107.48 129.50 106.97L129.50 106.97L128.21 106.71Q116.29 98.16 111.63 92.98L111.63 92.98Q111.37 86.51 127.43 92.98L127.43 92.98Q128.98 93.50 129.76 93.76L129.76 93.76Q133.13 97.13 133.13 105.93ZM70.97 38.85L70.97 38.85Q72.52 52.06 67.34 52.58L67.34 52.58Q66.05 52.84 64.49 52.06L64.49 52.06Q61.12 49.21 52.06 37.30L52.06 37.30Q49.99 34.45 48.43 32.38L48.43 32.38Q48.43 28.23 49.47 26.94L49.47 26.94Q64.49 30.82 70.97 38.85ZM159.28 67.60L159.28 67.60Q159.28 68.12 156.95 73.56L156.95 73.56Q153.85 80.55 153.85 124.84L153.85 124.84L155.40 167.06Q155.14 173.79 154.62 179.49L154.62 179.49Q153.33 193.47 142.71 200.98L142.71 200.98L138.82 199.17L118.10 177.16L137.01 177.93L139.08 174.31Q143.49 139.60 142.45 83.40L142.45 83.40Q142.45 77.70 142.19 69.41L142.19 69.41Q138.82 65.27 130.54 69.15L130.54 69.15Q124.84 71.74 123.03 71.74L123.03 71.74Q119.40 72.00 116.03 70.45L116.03 70.45L113.44 68.38Q112.67 67.60 112.41 66.82L112.41 66.82L131.31 61.12Q136.23 59.31 139.86 56.98L139.86 56.98Q152.81 57.76 159.28 67.60ZM140.64 117.59L141.16 120.18L116.03 151.26Q115.00 154.88 113.44 155.66L113.44 155.66Q105.41 155.66 97.64 148.93L97.64 148.93Q97.13 147.37 97.13 146.59L97.13 146.59Q97.13 143.75 104.64 141.67L104.64 141.67Q107.74 140.64 108.78 139.86L108.78 139.86L140.64 117.59ZM108.00 67.86L108.00 67.86Q108.00 69.93 106.45 71.48L106.45 71.48Q104.12 72.26 83.40 77.44L83.40 77.44L77.44 79.25Q84.43 83.66 86.25 85.73L86.25 85.73Q86.25 90.13 84.17 95.31L84.17 95.31Q90.65 94.28 95.05 95.31L95.05 95.31Q100.23 96.61 102.82 100.49L102.82 100.49Q102.56 102.30 97.38 103.86L97.38 103.86Q89.36 104.89 82.62 107.48L82.62 107.48L80.03 125.36L95.57 122.51Q101.01 122.25 104.12 123.80L104.12 123.80Q108.52 125.61 107.48 128.46L107.48 128.46Q107.23 129.50 105.67 130.28L105.67 130.28Q102.05 132.09 84.43 134.94L84.43 134.94L78.48 136.23L77.44 137.53Q70.71 173.01 47.91 193.99L47.91 193.99Q38.59 202.54 27.45 206.94L27.45 206.94L20.72 206.94L20.98 204.87Q53.09 182.34 63.20 148.15L63.20 148.15Q64.23 144.26 65.01 140.38L65.01 140.38Q61.12 140.64 45.07 146.59L45.07 146.59Q26.94 152.81 17.61 146.34L17.61 146.34Q15.02 144.00 15.02 141.41L15.02 141.41L17.09 139.86Q28.49 138.56 65.27 129.76L65.27 129.76Q66.05 129.76 66.56 129.50L66.56 129.50L69.41 110.59Q68.12 110.59 57.50 113.18L57.50 113.18Q48.69 115.25 44.29 110.33L44.29 110.33L44.29 109.04L69.93 100.49Q71.48 94.28 68.89 86.77L68.89 86.77Q68.12 84.43 67.08 82.10L67.08 82.10Q58.53 84.69 49.99 83.14L49.99 83.14Q45.07 82.10 41.96 79.77L41.96 79.77Q40.92 79.25 40.15 78.48L40.15 78.48Q40.40 77.18 65.27 71.74L65.27 71.74Q67.86 71.22 68.89 70.97L68.89 70.97L88.32 64.75Q101.79 61.64 108.00 67.86Z" stroke="#000" fill="black" /></svg>