<?xml version="1.0" encoding="UTF-8" standalone="no"?>
        <svg 
    viewBox="9.228515625 -76.611328125 442.3828125 59.619140625"
    width="433.154296875"
    height="136.23046875"
   xmlns="http://www.w3.org/2000/svg"
   xmlns:svg="http://www.w3.org/2000/svg">
   <path d="M23.73-89.06L23.73-89.06Q21.39-87.89 20.21-86.13L20.21-86.13Q19.63-79.10 17.58-72.95L17.58-72.95Q18.75-72.07 20.80-72.07L20.80-72.07Q21.68-75.29 23.73-75.88L23.73-75.88Q21.97-50.68 14.36-27.25L14.36-27.25Q13.77-29.59 12.89-31.05L12.89-31.05Q11.13-31.05 9.96-30.47L9.96-30.47Q8.50-24.32 9.96-17.87L9.96-17.87Q10.84-16.99 12.30-15.82L12.30-15.82Q16.70-15.53 19.34-18.46L19.34-18.46Q19.63-26.07 24.02-32.23L24.02-32.23Q28.42-58.59 31.35-84.08L31.35-84.08Q36.33-84.96 39.55-82.32L39.55-82.32Q35.74-77.34 33.98-71.48L33.98-71.48Q40.43-69.14 46.58-65.92L46.58-65.92Q48.05-64.16 47.75-61.23L47.75-61.23Q44.24-56.84 39.55-53.61L39.55-53.61Q37.79-57.42 33.98-55.66L33.98-55.66Q32.81-51.27 36.04-48.63L36.04-48.63Q39.84-48.05 43.95-48.63L43.95-48.63Q49.51-53.03 53.61-58.01L53.61-58.01Q53.61-61.82 55.08-64.45L55.08-64.45Q48.63-69.43 43.36-75L43.36-75Q45.41-78.52 47.46-82.03L47.46-82.03Q46.29-85.25 43.95-87.60L43.95-87.60Q38.38-89.65 32.23-89.36L32.23-89.36Q31.05-92.87 31.64-97.27L31.64-97.27Q29.00-98.73 25.78-98.44L25.78-98.44Q23.14-94.63 23.73-89.06ZM75.88-125.39L75.88-125.39Q81.15-117.48 82.62-107.52L82.62-107.52Q71.48-103.71 60.64-99.61L60.64-99.61Q59.77-98.44 60.06-96.39L60.06-96.39Q63.28-94.34 67.97-94.92L67.97-94.92Q75.29-101.95 84.67-101.95L84.67-101.95Q84.96-96.97 86.13-91.70L86.13-91.70Q75.59-88.48 66.21-82.03L66.21-82.03Q63.87-81.74 62.40-82.91L62.40-82.91Q63.87-86.13 61.82-88.48L61.82-88.48L55.96-88.48Q53.91-87.89 54.49-85.55L54.49-85.55Q58.30-81.45 61.52-76.46L61.52-76.46Q62.40-71.19 61.52-64.16L61.52-64.16Q62.99-62.70 64.16-61.23L64.16-61.23L59.47-58.01Q59.47-56.54 61.23-55.96L61.23-55.96Q68.55-57.42 76.17-58.30L76.17-58.30Q63.28-43.95 45.70-31.05L45.70-31.05L41.60-31.05Q38.96-29.59 39.55-26.37L39.55-26.37Q43.36-24.32 48.63-26.07L48.63-26.07Q57.13-32.52 66.80-37.79L66.80-37.79Q68.26-38.09 69.73-36.62L69.73-36.62Q73.24-39.55 73.54-44.53L73.54-44.53Q76.17-48.05 80.86-50.10L80.86-50.10Q84.96-51.27 87.60-48.63L87.60-48.63Q86.72-22.56 82.91 3.52L82.91 3.52Q78.22 0.59 76.17-3.81L76.17-3.81Q73.83-4.39 72.95-2.93L72.95-2.93L72.95 0.59Q77.05 4.69 82.32 8.50L82.32 8.50Q84.96 7.91 87.89 7.91L87.89 7.91Q90.53 3.52 91.99-1.17L91.99-1.17Q93.16-21.09 93.46-43.65L93.46-43.65Q105.47-38.96 119.82-32.23L119.82-32.23Q126.86-31.05 134.47-30.76L134.47-30.76Q138.57-31.93 141.50-34.86L141.50-34.86Q141.50-36.62 139.75-37.21L139.75-37.21Q133.01-35.45 126.27-36.04L126.27-36.04Q108.98-42.19 94.34-52.15L94.34-52.15Q92.87-57.71 94.63-62.99L94.63-62.99Q99.02-67.97 105.76-70.61L105.76-70.61Q110.16-75 113.38-80.27L113.38-80.27Q111.33-89.36 109.28-98.14L109.28-98.14Q99.32-98.14 91.41-95.80L91.41-95.80Q91.70-100.78 90.53-104.59L90.53-104.59Q96.09-106.93 99.61-111.33L99.61-111.33Q94.04-111.91 89.36-112.79L89.36-112.79Q88.48-121.00 84.38-126.86L84.38-126.86Q79.39-128.91 75.88-125.39ZM82.03-61.23L82.03-61.23Q84.96-61.82 87.60-60.35L87.60-60.35Q87.60-55.96 87.60-52.44L87.60-52.44Q84.96-50.98 82.03-51.27L82.03-51.27Q79.98-53.61 82.32-55.08L82.32-55.08Q80.86-57.13 78.22-58.01L78.22-58.01Q79.39-60.06 82.03-61.23ZM93.46-72.36L93.46-72.36Q93.16-70.02 92.87-66.80L92.87-66.80Q90.23-67.09 90.53-71.48L90.53-71.48Q91.41-72.95 93.46-72.36ZM92.29-80.57L92.29-80.57Q92.58-78.52 91.11-77.64L91.11-77.64Q89.65-78.81 89.94-80.57L89.94-80.57Q91.11-82.03 92.29-80.57ZM86.43-86.43L86.43-86.43Q86.72-84.67 86.72-82.32L86.72-82.32Q78.52-80.27 70.31-77.64L70.31-77.64Q70.90-75.59 72.95-74.41L72.95-74.41Q78.81-76.46 85.55-76.76L85.55-76.76Q87.30-71.78 86.72-66.80L86.72-66.80Q79.10-63.28 70.31-62.40L70.31-62.40Q69.14-72.07 67.38-79.69L67.38-79.69Q76.46-83.50 86.43-86.43ZM101.37-92.58L101.37-92.58Q103.71-88.77 103.13-83.20L103.13-83.20Q101.66-78.22 98.14-73.54L98.14-73.54Q95.21-75.29 98.14-77.93L98.14-77.93Q96.39-80.86 93.46-82.32L93.46-82.32Q92.29-86.43 94.04-89.36L94.04-89.36Q97.27-91.70 101.37-92.58ZM177.25-81.15L177.25-81.15Q175.49-82.91 174.32-84.67L174.32-84.67Q171.09-84.08 167.58-84.08L167.58-84.08Q166.11-82.62 166.11-80.86L166.11-80.86Q171.39-77.05 178.42-73.54L178.42-73.54Q181.05-76.46 183.98-78.52L183.98-78.52Q184.86-83.50 181.64-85.25L181.64-85.25Q179.30-83.50 177.25-81.15ZM200.10-102.25L200.10-102.25Q196.29-99.61 193.65-95.51L193.65-95.51Q193.65-94.04 195.70-92.87L195.70-92.87Q195.70-85.25 194.53-77.64L194.53-77.64Q190.72-69.73 188.67-60.35L188.67-60.35Q174.61-31.64 157.91-3.52L157.91-3.52Q157.62-2.05 158.50-0.59L158.50-0.59Q160.25-0.29 162.60 0L162.60 0Q177.83-26.07 191.02-53.61L191.02-53.61Q195.12-66.50 200.39-78.52L200.39-78.52Q202.15-89.65 204.20-100.49L204.20-100.49Q202.73-103.13 200.10-102.25ZM253.13-115.72L253.13-115.72Q250.78-109.86 249.90-102.54L249.90-102.54Q251.07-101.66 252.83-102.54L252.83-102.54Q253.42-104.30 253.42-106.05L253.42-106.05Q259.57-113.38 267.77-118.95L267.77-118.95Q270.41-119.24 271.29-116.60L271.29-116.60Q271.58-100.78 268.95-86.13L268.95-86.13Q258.98-82.91 249.61-77.05L249.61-77.05Q247.85-77.05 246.97-78.22L246.97-78.22L246.97-87.60Q251.07-88.18 255.76-88.18L255.76-88.18Q261.62-90.53 266.60-93.75L266.60-93.75Q266.60-95.51 265.43-96.39L265.43-96.39Q257.23-94.92 248.73-93.75L248.73-93.75Q246.39-95.80 245.21-98.14L245.21-98.14Q242.58-98.44 240.53-98.73L240.53-98.73Q238.48-97.56 237.89-95.51L237.89-95.51Q241.70-89.94 241.70-83.20L241.70-83.20Q240.53-79.10 238.48-75.29L238.48-75.29Q237.60-71.48 239.94-68.85L239.94-68.85Q247.27-70.31 254.00-73.83L254.00-73.83Q255.18-66.21 253.71-57.13L253.71-57.13Q252.25-55.08 250.20-53.32L250.20-53.32Q244.04-52.15 237.89-50.39L237.89-50.39Q236.43-49.22 235.25-47.17L235.25-47.17Q236.13-45.41 238.48-43.95L238.48-43.95Q240.53-44.53 243.16-44.53L243.16-44.53Q244.63-42.19 245.51-39.84L245.51-39.84Q249.90-37.21 255.18-36.33L255.18-36.33Q261.33-38.96 266.89-42.48L266.89-42.48Q261.04-31.35 253.71-20.51L253.71-20.51Q246.09-13.77 239.36-7.03L239.36-7.03Q232.91-5.86 226.46-5.27L226.46-5.27L226.46-1.17Q223.24 0.29 221.19-2.93L221.19-2.93Q217.38-42.48 214.45-76.46L214.45-76.46Q221.78-87.60 229.10-98.44L229.10-98.44Q231.74-98.44 233.20-100.49L233.20-100.49L233.20-103.71Q229.10-106.64 224.12-106.05L224.12-106.05Q221.19-105.18 219.73-102.83L219.73-102.83Q219.43-95.80 216.50-89.06L216.50-89.06Q208.89-77.34 200.68-66.21L200.68-66.21Q204.20-65.04 207.13-62.11L207.13-62.11Q208.59-54.49 210.94-46.58L210.94-46.58Q212.40-25.20 213.87-4.10L213.87-4.10Q215.33 0.88 217.09 6.74L217.09 6.74Q220.61 6.15 224.41 4.98L224.41 4.98Q225 2.64 225 0.29L225 0.29Q231.74 1.76 239.94-1.17L239.94-1.17Q265.72 0.88 290.04 7.32L290.04 7.32L292.38 4.98Q291.21 1.76 288.57 0.88L288.57 0.88Q275.98-1.76 263.96-4.98L263.96-4.98Q254.88-6.15 245.21-5.86L245.21-5.86Q243.46-6.74 244.04-8.20L244.04-8.20Q246.68-9.67 249.61-10.84L249.61-10.84Q265.43-27.25 276.86-46.88L276.86-46.88Q274.80-50.10 271.58-50.39L271.58-50.39Q269.82-48.05 268.65-44.82L268.65-44.82Q261.62-45.70 254.88-42.48L254.88-42.48Q252.25-44.24 252.83-47.46L252.83-47.46Q261.33-53.91 268.65-60.64L268.65-60.64Q269.24-63.87 267.19-65.04L267.19-65.04Q263.67-62.70 260.16-60.64L260.16-60.64Q258.40-71.19 263.96-80.27L263.96-80.27Q265.72-80.86 266.89-79.39L266.89-79.39Q263.96-75.59 262.50-70.61L262.50-70.61Q264.84-70.02 267.77-70.61L267.77-70.61Q271.58-77.34 274.22-84.38L274.22-84.38Q274.51-95.21 278.03-104.88L278.03-104.88Q278.61-116.31 277.44-125.98L277.44-125.98Q273.93-126.86 270.41-127.73L270.41-127.73Q261.33-122.46 253.13-115.72ZM370.02-111.62L370.02-111.62Q367.09-109.57 365.33-106.93L365.33-106.93Q365.04-104.88 367.38-103.71L367.38-103.71Q376.46-108.11 386.13-111.33L386.13-111.33Q391.70-95.80 392.58-77.64L392.58-77.64Q387.89-73.54 382.91-70.31L382.91-70.31Q377.05-68.85 371.48-67.09L371.48-67.09Q372.36-72.07 371.78-77.05L371.78-77.05Q367.68-80.57 362.11-80.27L362.11-80.27Q357.71-79.39 359.47-74.71L359.47-74.71Q361.52-73.83 364.16-74.71L364.16-74.71Q365.63-73.83 365.33-71.78L365.33-71.78Q362.99-68.85 360.35-65.92L360.35-65.92Q353.32-67.97 348.05-64.16L348.05-64.16Q345.70-67.38 346.58-71.78L346.58-71.78Q348.05-73.83 349.22-76.17L349.22-76.17Q350.10-82.03 347.17-85.55L347.17-85.55Q353.03-92.29 358.30-98.73L358.30-98.73Q348.05-100.49 339.55-97.27L339.55-97.27Q345.70-101.95 350.68-106.64L350.68-106.64Q351.86-109.57 353.32-112.50L353.32-112.50Q349.80-116.89 345.12-114.55L345.12-114.55Q343.07-111.33 340.14-108.11L340.14-108.11Q331.35-110.45 322.56-108.11L322.56-108.11Q323.44-105.47 326.37-103.13L326.37-103.13Q328.71-103.42 331.05-103.71L331.05-103.71Q332.81-103.13 333.11-101.07L333.11-101.07Q326.66-94.63 321.09-87.89L321.09-87.89Q321.97-86.13 324.02-85.25L324.02-85.25Q331.35-86.13 337.21-90.23L337.21-90.23Q338.67-89.94 338.38-87.60L338.38-87.60Q325.78-76.76 312.60-67.38L312.60-67.38L312.60-64.16Q319.63-63.57 327.25-65.04L327.25-65.04Q326.37-63.28 324.90-61.52L324.90-61.52Q320.21-59.18 314.65-58.59L314.65-58.59Q310.25-55.96 307.91-52.15L307.91-52.15Q307.62-50.68 309.38-49.51L309.38-49.51Q324.02-53.91 338.67-58.30L338.67-58.30Q338.38-46.88 335.74-34.57L335.74-34.57Q333.11-29.30 331.05-24.02L331.05-24.02Q327.25-8.50 327.83 5.86L327.83 5.86Q331.05 7.62 334.57 5.86L334.57 5.86Q336.04 3.22 338.09 1.46L338.09 1.46Q338.38-1.76 337.21-4.10L337.21-4.10Q335.74-3.52 334.28-3.52L334.28-3.52Q340.14-28.71 344.53-54.49L344.53-54.49Q347.17-57.71 350.39-60.64L350.39-60.64Q355.37-60.06 359.18-58.59L359.18-58.59Q377.05-62.70 392.58-69.14L392.58-69.14Q391.70-49.22 389.94-28.42L389.94-28.42Q385.84-26.07 381.15-27.54L381.15-27.54Q379.10-31.05 376.17-33.11L376.17-33.11Q373.83-33.98 372.07-32.23L372.07-32.23Q373.54-26.37 379.69-23.14L379.69-23.14Q386.72-22.27 393.75-21.97L393.75-21.97Q395.51-24.61 396.97-27.54L396.97-27.54Q398.73-50.39 397.56-72.36L397.56-72.36Q401.37-79.69 406.05-87.01L406.05-87.01Q405.76-89.36 403.13-88.77L403.13-88.77Q401.66-85.55 398.73-82.62L398.73-82.62Q395.80-98.44 394.92-116.02L394.92-116.02Q393.16-118.07 391.70-119.53L391.70-119.53Q380.27-116.89 370.02-111.62ZM339.26-67.97L339.26-67.97Q340.72-67.68 340.43-65.33L340.43-65.33Q338.96-64.16 337.50-63.28L337.50-63.28Q335.16-65.63 339.26-67.97ZM337.79-82.91L337.79-82.91Q341.60-80.57 340.43-75.29L340.43-75.29Q332.81-73.24 324.61-71.48L324.61-71.48Q330.18-77.34 337.79-82.91ZM424.51-126.86L424.51-126.86Q416.02-121.58 411.04-113.96L411.04-113.96Q409.28-107.81 406.93-101.66L406.93-101.66Q407.52-100.49 409.28-100.78L409.28-100.78Q416.02-109.57 423.63-117.48L423.63-117.48Q425.68-117.19 426.86-114.84L426.86-114.84Q429.49-95.80 430.66-76.76L430.66-76.76Q427.15-71.78 421.00-69.73L421.00-69.73Q421.00-74.41 421.88-79.10L421.88-79.10Q418.65-83.79 413.67-85.55L413.67-85.55Q408.11-84.96 406.05-81.15L406.05-81.15Q408.69-78.81 413.67-79.69L413.67-79.69Q414.55-78.22 415.43-76.46L415.43-76.46Q411.04-67.97 406.35-60.06L406.35-60.06Q408.69-58.30 412.50-58.89L412.50-58.89Q421.58-62.70 429.49-68.85L429.49-68.85Q432.42-39.26 434.18-4.39L434.18-4.39Q432.71-2.34 430.66-3.52L430.66-3.52Q420.70-18.46 411.91-32.52L411.91-32.52Q411.04-30.47 411.62-26.66L411.62-26.66Q418.07-12.01 426.86 1.76L426.86 1.76Q431.54 6.15 438.28 7.91L438.28 7.91Q438.28 4.39 442.38 2.05L442.38 2.05Q442.09 0 440.33-1.17L440.33-1.17Q439.75-37.21 437.11-73.54L437.11-73.54Q437.99-75.29 439.16-76.46L439.16-76.46Q437.99-79.98 436.52-82.32L436.52-82.32Q435.35-102.83 433.89-124.22L433.89-124.22Q430.37-128.32 424.51-126.86Z"/>
    </svg>
        